<mxfile host="65bd71144e">
    <diagram id="oDOtJ6f8kUl83i2vpo6P" name="第 1 页">
        <mxGraphModel dx="414" dy="645" grid="1" gridSize="10" guides="1" tooltips="1" connect="1" arrows="1" fold="1" page="1" pageScale="1" pageWidth="827" pageHeight="1169" math="0" shadow="0">
            <root>
                <mxCell id="0"/>
                <mxCell id="1" parent="0"/>
                <mxCell id="12" value="" style="rounded=0;whiteSpace=wrap;html=1;glass=0;labelBackgroundColor=none;sketch=1;fontFamily=Yuppy SC;fontSize=18;fontColor=#333333;strokeColor=#333333;" vertex="1" parent="1">
                    <mxGeometry x="120" y="160" width="290" height="360" as="geometry"/>
                </mxCell>
                <mxCell id="6" style="edgeStyle=none;html=1;exitX=0.5;exitY=1;exitDx=0;exitDy=0;entryX=0.5;entryY=0;entryDx=0;entryDy=0;fontFamily=Helvetica;fontSize=17;fillColor=#f5f5f5;strokeColor=#333333;sketch=1;" edge="1" parent="1" source="2" target="4">
                    <mxGeometry relative="1" as="geometry"/>
                </mxCell>
                <mxCell id="8" value="在论坛或相关群讨论后" style="edgeLabel;html=1;align=center;verticalAlign=middle;resizable=0;points=[];fontSize=16;fontFamily=Yuppy SC;labelBackgroundColor=none;fontColor=#333333;" vertex="1" connectable="0" parent="6">
                    <mxGeometry x="-0.08" y="1" relative="1" as="geometry">
                        <mxPoint x="-1" as="offset"/>
                    </mxGeometry>
                </mxCell>
                <mxCell id="2" value="&lt;font face=&quot;Yuppy SC&quot; style=&quot;font-size: 18px;&quot;&gt;💡 提出想法&lt;/font&gt;" style="rounded=1;whiteSpace=wrap;html=1;fontSize=18;fontFamily=Menlo;fillColor=#dae8fc;strokeColor=#6c8ebf;sketch=1;" vertex="1" parent="1">
                    <mxGeometry x="160" y="190" width="140" height="60" as="geometry"/>
                </mxCell>
                <mxCell id="7" style="edgeStyle=none;html=1;exitX=0.5;exitY=1;exitDx=0;exitDy=0;entryX=0.5;entryY=0;entryDx=0;entryDy=0;fontFamily=Helvetica;fontSize=17;fillColor=#f5f5f5;strokeColor=#333333;sketch=1;" edge="1" parent="1" source="4" target="5">
                    <mxGeometry relative="1" as="geometry"/>
                </mxCell>
                <mxCell id="9" value="社区确认没问题后" style="edgeLabel;html=1;align=center;verticalAlign=middle;resizable=0;points=[];fontSize=16;fontFamily=Yuppy SC;labelBackgroundColor=none;fontColor=#333333;" vertex="1" connectable="0" parent="7">
                    <mxGeometry x="0.0333" y="1" relative="1" as="geometry">
                        <mxPoint x="-1" as="offset"/>
                    </mxGeometry>
                </mxCell>
                <mxCell id="4" value="📝 编写RFC" style="rounded=1;whiteSpace=wrap;html=1;fontSize=18;fontFamily=Yuppy SC;fillColor=#fff2cc;strokeColor=#d6b656;sketch=1;glass=0;fontColor=#333333;" vertex="1" parent="1">
                    <mxGeometry x="160" y="310" width="140" height="60" as="geometry"/>
                </mxCell>
                <mxCell id="5" value="📚 更新标准" style="rounded=1;whiteSpace=wrap;html=1;fontSize=18;fontFamily=Yuppy SC;fillColor=#d5e8d4;strokeColor=#82b366;sketch=1;fontColor=#333333;" vertex="1" parent="1">
                    <mxGeometry x="160" y="430" width="140" height="60" as="geometry"/>
                </mxCell>
                <mxCell id="11" value="修订草稿" style="curved=1;endArrow=classic;html=1;rounded=1;sketch=1;fontFamily=Yuppy SC;fontSize=16;elbow=vertical;exitX=1;exitY=0.75;exitDx=0;exitDy=0;entryX=1;entryY=0.25;entryDx=0;entryDy=0;labelBackgroundColor=none;fillColor=#f5f5f5;strokeColor=#333333;fontColor=#333333;" edge="1" parent="1" source="4" target="4">
                    <mxGeometry width="50" height="50" relative="1" as="geometry">
                        <mxPoint x="310" y="360" as="sourcePoint"/>
                        <mxPoint x="360" y="310" as="targetPoint"/>
                        <Array as="points">
                            <mxPoint x="350" y="380"/>
                            <mxPoint x="360" y="310"/>
                        </Array>
                    </mxGeometry>
                </mxCell>
            </root>
        </mxGraphModel>
    </diagram>
</mxfile>